<svg width="25" height="24" viewBox="0 0 25 24" fill="none" xmlns="http://www.w3.org/2000/svg">
<g clip-path="url(#clip0_49_933)">
<path d="M9.5 22C11.156 22 12.5 20.656 12.5 19V16H9.5C7.844 16 6.5 17.344 6.5 19C6.5 20.656 7.844 22 9.5 22Z" fill="#0ACF83"/>
<path d="M6.5 13C6.5 11.344 7.844 10 9.5 10H12.5V16H9.5C7.844 16 6.5 14.656 6.5 13Z" fill="#A259FF"/>
<path d="M6.5 7C6.5 5.344 7.844 4 9.5 4H12.5V10H9.5C7.844 10 6.5 8.656 6.5 7Z" fill="#F24E1E"/>
<path d="M12.5 4H15.5C17.156 4 18.5 5.344 18.5 7C18.5 8.656 17.156 10 15.5 10H12.5V4Z" fill="#FF7262"/>
<path d="M18.5 13C18.5 14.656 17.156 16 15.5 16C13.844 16 12.5 14.656 12.5 13C12.5 11.344 13.844 10 15.5 10C17.156 10 18.5 11.344 18.5 13Z" fill="#1ABCFE"/>
</g>
<defs>
<clipPath id="clip0_49_933">
<rect width="12" height="18" fill="white" transform="translate(6.5 4)"/>
</clipPath>
</defs>
</svg>
