<svg width="20" height="20" viewBox="0 0 20 20" fill="none" xmlns="http://www.w3.org/2000/svg">
<g clip-path="url(#clip0_49_943)">
<g clip-path="url(#clip1_49_943)">
<path d="M8.5267 8.52583C9.28264 7.76994 10.3002 7.33352 11.3689 7.30685C12.4376 7.28017 13.4756 7.66527 14.2684 8.3825L14.4192 8.52583L16.7759 10.8833C17.5434 11.6522 17.9803 12.6905 17.9933 13.7768C18.0064 14.8632 17.5947 15.9116 16.8459 16.6988C16.0971 17.4859 15.0705 17.9495 13.9849 17.9907C12.8992 18.0318 11.8404 17.6474 11.0342 16.9192L10.8842 16.7758L9.11586 15.0075C8.9664 14.8575 8.87963 14.6563 8.87317 14.4447C8.86671 14.2331 8.94104 14.0269 9.08107 13.8681C9.2211 13.7093 9.41632 13.6097 9.62709 13.5897C9.83786 13.5696 10.0484 13.6305 10.2159 13.76L10.2942 13.8292L12.0625 15.5975C12.5209 16.0586 13.1409 16.3229 13.791 16.3345C14.441 16.346 15.07 16.1039 15.5445 15.6594C16.019 15.215 16.3017 14.6031 16.3326 13.9537C16.3635 13.3043 16.1402 12.6683 15.71 12.1808L15.5975 12.0617L13.2409 9.705C13.0087 9.47281 12.7331 9.28862 12.4298 9.16296C12.1264 9.03729 11.8013 8.97262 11.4729 8.97262C11.1446 8.97262 10.8195 9.03729 10.5161 9.16296C10.2128 9.28862 9.93718 9.47281 9.70503 9.705C9.54866 9.86126 9.33663 9.949 9.11557 9.94892C8.89451 9.94884 8.68253 9.86095 8.52628 9.70458C8.37002 9.54821 8.28228 9.33618 8.28236 9.11512C8.28244 8.89406 8.37033 8.68209 8.5267 8.52583ZM3.22336 3.2225C3.9793 2.46661 4.99686 2.03019 6.06555 2.00351C7.13425 1.97683 8.17231 2.36194 8.96503 3.07917L9.11586 3.2225L10.8834 4.99167C11.0328 5.14163 11.1196 5.34286 11.1261 5.55449C11.1325 5.76611 11.0582 5.97226 10.9182 6.13106C10.7781 6.28987 10.5829 6.38942 10.3721 6.4095C10.1614 6.42958 9.95085 6.36868 9.78336 6.23917L9.70503 6.17L7.93753 4.4025C7.47834 3.9463 6.8601 3.68598 6.21289 3.67631C5.56568 3.66664 4.93994 3.90838 4.46733 4.35066C3.99472 4.79294 3.71206 5.40128 3.67884 6.04771C3.64562 6.69414 3.86441 7.32826 4.28919 7.81667L4.4017 7.93667L6.75919 10.2942C7.22801 10.7628 7.86378 11.0261 8.5267 11.0261C9.18961 11.0261 9.82538 10.7628 10.2942 10.2942C10.3716 10.2167 10.4634 10.1553 10.5645 10.1134C10.6656 10.0715 10.774 10.0499 10.8835 10.0498C10.9929 10.0498 11.1013 10.0713 11.2025 10.1132C11.3036 10.155 11.3955 10.2164 11.4729 10.2937C11.5504 10.3711 11.6118 10.463 11.6537 10.5641C11.6956 10.6652 11.7172 10.7736 11.7173 10.883C11.7173 10.9925 11.6958 11.1009 11.6539 11.202C11.6121 11.3032 11.5507 11.3951 11.4734 11.4725C10.7174 12.2284 9.69986 12.6648 8.63117 12.6915C7.56248 12.7182 6.52441 12.3331 5.73169 11.6158L5.58003 11.4725L3.22336 9.115C2.44223 8.33363 2.00342 7.27402 2.00342 6.16917C2.00342 5.06431 2.44223 4.00386 3.22336 3.2225Z" fill="white"/>
</g>
</g>
<defs>
<clipPath id="clip0_49_943">
<rect width="20" height="20" fill="white"/>
</clipPath>
<clipPath id="clip1_49_943">
<rect width="20" height="20" fill="white"/>
</clipPath>
</defs>
</svg>
